#Comment line ignore any data following # character 
#Hierarchical Translation and Rotation (.htr) file 
[Header]	
#Header keywords are followed by a single value 
FileType HTR		#Single word string
DataType HTRS		#Translation followed by rotation and scale data
FileVersion 1		#integer
NumSegments 14		#integer
NumFrames 5		#integer
DataFrameRate 30		#integer, data frame rate in this file
EulerRotationOrder ZYX
CalibrationUnits mm
RotationUnits Degrees
GlobalAxisofGravity Y
BoneLengthAxis Y
ScaleFactor 1.00
[SegmentNames&Hierarchy]
#CHILD	PARENT
MASTER GLOBAL
weapon MASTER
barrel_root weapon
middle_left_energyLow_part1 weapon
middle_left_energyLow_part2 weapon
middle_left_root weapon
middle_right_energyLow_part1 weapon
middle_top weapon
barrel1_top_root barrel_root
barrel2_top_root barrel_root
barrel3_top_root barrel_root
barrel1_top_back barrel1_top_root
barrel2_top_back barrel2_top_root
barrel3_top_back barrel3_top_root
[BasePosition]
#SegmentName Tx, Ty, Tz, Rx, Ry, Rz, BoneLength
MASTER 0.000000 0.000000 0.000000 -90.000000 0.000000 0.000000 10.000000 
weapon 0.000000 0.000000 0.000000 0.000000 0.000000 0.000000 10.000000 
barrel_root 0.000000 0.000000 0.000000 0.000000 0.000000 0.000000 10.000000 
middle_left_energyLow_part1 0.000000 0.000000 0.000000 0.000000 0.000000 0.000000 10.000000 
middle_left_energyLow_part2 0.000000 0.000000 0.000000 0.000000 0.000000 0.000000 10.000000 
middle_left_root 0.000000 0.000000 0.000000 0.000000 0.000000 0.000000 10.000000 
middle_right_energyLow_part1 0.000000 0.000000 0.000000 0.000000 0.000000 0.000000 10.000000 
middle_top 0.000000 0.000000 0.000000 0.000000 0.000000 0.000000 10.000000 
barrel1_top_root 0.000000 0.000000 0.000000 0.000000 0.000000 0.000000 10.000000 
barrel2_top_root 0.000000 0.000000 0.000000 0.000000 0.000000 0.000000 10.000000 
barrel3_top_root 0.000000 0.000000 0.000000 0.000000 0.000000 0.000000 10.000000 
barrel1_top_back 0.000000 0.000000 0.000000 0.000000 0.000000 0.000000 10.000000 
barrel2_top_back 0.000000 0.000000 0.000000 0.000000 0.000000 0.000000 10.000000 
barrel3_top_back 0.000000 0.000000 0.000000 0.000000 0.000000 0.000000 10.000000 
#Beginning of Data. Separated by tabs
#Fr	Tx	Ty	Tz	Rx	Ry	Rz	SF
[MASTER]
1 0.000000 0.000000 0.000000 0.000000 -0.000000 0.000000 0.000000
2 0.000000 0.000000 0.000000 0.000000 -0.000000 0.000000 0.000000
3 0.000000 0.000000 0.000000 0.000000 -0.000000 0.000000 0.000000
4 0.000000 0.000000 0.000000 0.000000 -0.000000 0.000000 0.000000
5 0.000000 0.000000 0.000000 0.000000 -0.000000 0.000000 0.000000
[weapon]
1 -0.000076 -104.980469 30.104675 0.000000 0.000000 -0.000020 109.211678
2 0.000000 -104.980583 30.104675 0.000000 0.000000 -0.000020 109.211784
3 0.000000 -104.980507 30.104521 0.000000 0.000000 -0.000020 109.211670
4 0.000000 -104.980469 30.104597 0.000000 0.000000 -0.000020 109.211655
5 0.000000 -104.980507 30.104597 0.000000 0.000000 -0.000020 109.211693
[barrel_root]
1 0.000019 259.831757 -55.258789 0.001660 0.001660 0.001660 265.642761
2 -0.000076 259.937286 -55.258709 0.001648 -0.849007 0.001648 265.745972
3 -0.000057 260.344269 -55.258751 0.001615 -3.248094 0.001615 266.144073
4 -0.000038 260.751221 -55.258789 0.001567 -6.981019 0.001567 266.542175
5 -0.000029 261.528046 -55.258671 0.001512 -11.819693 0.001512 267.302155
[middle_left_energyLow_part1]
1 -152.219666 -30.653076 -39.080353 0.001660 0.001660 0.001660 160.117813
2 -151.992416 -30.653076 -38.623272 0.001659 -0.052743 0.001659 159.790680
3 -151.335007 -30.653114 -37.299194 0.001657 -0.215950 0.001657 158.849380
4 -150.285294 -30.653152 -35.178528 0.001653 -0.483019 0.001653 157.362030
5 -148.880402 -30.653038 -32.332001 0.001648 -0.849007 0.001648 155.403809
[middle_left_energyLow_part2]
1 -169.986145 -28.308716 -78.007355 0.001660 0.001660 0.001660 189.160828
2 -169.872726 -28.318634 -77.666016 0.001662 0.189599 0.001662 188.919815
3 -169.541779 -28.347929 -76.669998 0.001671 0.743519 0.001671 188.218781
4 -169.007385 -28.395119 -75.061798 0.001684 1.638741 0.001684 187.093704
5 -168.283478 -28.458939 -72.883446 0.001703 2.855615 0.001703 185.583511
[middle_left_root]
1 -69.244308 -30.653076 -78.054886 0.003432 -50.001465 179.996567 108.751785
2 -69.637451 -30.652924 -77.628860 0.003437 -50.072418 179.996567 108.697823
3 -70.774307 -30.652960 -76.398384 0.003454 -50.274483 179.996552 108.560219
4 -72.590706 -30.653000 -74.433594 0.003481 -50.597004 179.996521 108.394547
5 -75.022621 -30.652960 -71.805267 0.003518 -51.029549 179.996475 108.277397
[middle_right_energyLow_part1]
1 142.814316 -29.615402 -39.080429 0.001660 -0.001660 179.998337 150.997620
2 142.586807 -29.615173 -38.623199 0.001661 -0.056062 179.998337 150.664551
3 141.929626 -29.615286 -37.299042 0.001663 -0.219270 179.998337 149.707397
4 140.879776 -29.615250 -35.178375 0.001667 -0.486338 179.998337 148.194778
5 139.474869 -29.615250 -32.331924 0.001672 -0.852327 179.998322 146.204163
[middle_top]
1 -3.220424 49.869995 59.132381 0.001660 0.001660 0.001660 77.421097
2 -3.220482 49.372482 59.132309 0.011550 0.001660 0.001660 77.101509
3 -3.220482 47.933960 59.132381 0.036282 0.001659 0.001660 76.188416
4 -3.220520 45.636593 59.132381 0.085739 0.001658 0.001661 74.764359
5 -3.220482 42.561913 59.132381 0.145087 0.001658 0.001662 72.928230
[barrel1_top_root]
1 0.000081 96.240509 0.000132 0.000000 -0.000000 0.000000 96.240509
2 0.000081 96.240509 0.000132 0.000000 -0.000000 0.000000 96.240509
3 0.000081 96.240509 0.000132 0.000000 -0.000000 0.000000 96.240509
4 0.000081 96.240509 0.000132 0.000000 -0.000000 0.000000 96.240509
5 0.000081 96.240509 0.000132 0.000000 -0.000000 0.000000 96.240509
[barrel2_top_root]
1 -0.000009 124.139923 0.000132 179.998779 -54.999702 179.998779 124.139923
2 -0.000009 124.139923 0.000132 179.998779 -55.334499 179.998779 124.139923
3 -0.000009 124.139923 0.000132 179.998779 -56.291504 179.998779 124.139923
4 -0.000009 124.139923 0.000132 179.998779 -57.811352 179.998779 124.139923
5 -0.000009 124.139923 0.000132 179.998795 -59.826824 179.998795 124.139923
[barrel3_top_root]
1 0.000101 69.591400 0.000123 179.996094 54.997871 179.996094 69.591400
2 0.000101 69.591400 0.000123 179.996063 55.332645 179.996063 69.591400
3 0.000101 69.591400 0.000123 179.995956 56.289665 179.995956 69.591400
4 0.000101 69.591400 0.000123 179.995773 57.809494 179.995773 69.591400
5 0.000101 69.591400 0.000123 179.995499 59.830643 179.995499 69.591400
[barrel1_top_back]
1 -3.343935 98.041893 186.671844 0.001660 0.001660 0.001660 210.878571
2 -3.343935 98.041893 186.671844 -0.062633 0.001661 0.001659 210.878571
3 -3.343935 98.041893 186.671844 -0.240682 0.001663 0.001656 210.878571
4 -3.343935 98.041893 186.671844 -0.537422 0.001668 0.001652 210.878571
5 -3.343935 98.041893 186.671844 -0.938034 0.001673 0.001646 210.878571
[barrel2_top_back]
1 3.886122 70.142326 185.630630 0.001660 0.001660 0.001660 198.478668
2 3.886122 70.142326 185.630630 -0.032962 0.001660 0.001659 198.478668
3 3.886122 70.142326 185.630630 -0.121980 0.001662 0.001658 198.478668
4 3.886122 70.142326 185.630630 -0.275298 0.001664 0.001656 198.478668
5 3.886122 70.142326 185.630630 -0.478074 0.001667 0.001653 198.478668
[barrel3_top_back]
1 -0.050068 125.495209 180.152344 0.001660 0.001660 0.001660 219.553894
2 -0.050068 125.495209 180.152344 -0.042853 0.001660 0.001659 219.553894
3 -0.050068 125.495209 180.152344 -0.176383 0.001662 0.001657 219.553894
4 -0.050068 125.495209 180.152344 -0.389048 0.001665 0.001654 219.553894
5 -0.050068 125.495209 180.152344 -0.685796 0.001670 0.001650 219.553894
